<?xml version="1.0" standalone="no"?>
<!DOCTYPE svg PUBLIC "-//W3C//DTD SVG 20010904//EN"
 "http://www.w3.org/TR/2001/REC-SVG-20010904/DTD/svg10.dtd">
<svg version="1.0" xmlns="http://www.w3.org/2000/svg"
 width="70.000000pt" height="70.000000pt" viewBox="0 0 70.000000 70.000000"
 preserveAspectRatio="xMidYMid meet">
<metadata>
Created by potrace 1.14, written by Peter Selinger 2001-2017
</metadata>
<g transform="translate(0.000000,70.000000) scale(0.100000,-0.100000)"
fill="#000000" stroke="none">
<path d="M357 650 c11 -14 17 -66 14 -120 -2 -21 -6 -18 -29 25 l-27 50 -3
-52 c-3 -56 -15 -68 -27 -30 -6 20 -8 18 -14 -14 -4 -19 -17 -45 -29 -57 -12
-12 -22 -27 -22 -32 0 -6 -14 4 -31 22 -18 19 -26 25 -21 13 7 -14 6 -32 -4
-60 -39 -108 -54 -186 -43 -208 64 -119 365 -149 443 -44 21 28 21 29 2 43
-23 16 -17 25 27 40 39 13 46 37 16 61 -79 63 -97 107 -63 158 24 37 6 30 -32
-12 -30 -32 -34 -34 -34 -16 0 12 -3 28 -6 37 -5 13 -9 12 -23 -6 -18 -21 -18
-20 -24 34 -6 62 -40 151 -66 170 -14 11 -14 11 -4 -2z m163 -440 c8 13 10 12
10 -4 0 -14 -5 -17 -22 -12 -13 3 -32 6 -43 7 -16 1 -15 2 5 8 15 4 28 3 33
-3 5 -7 10 -6 17 4z"/>
</g>
</svg>
